<svg xmlns="http://www.w3.org/2000/svg" xmlns:xlink="http://www.w3.org/1999/xlink" width="500" zoomAndPan="magnify" viewBox="0 0 375 374.999991" height="500" preserveAspectRatio="xMidYMid meet" version="1.0"><defs><clipPath id="da9a57a929"><path d="M 150.695312 158 L 297.695312 158 L 297.695312 307 L 150.695312 307 Z M 150.695312 158 " clip-rule="nonzero"/></clipPath><clipPath id="0d064cf6bd"><path d="M 77.296875 68 L 224.085938 68 L 224.085938 217 L 77.296875 217 Z M 77.296875 68 " clip-rule="nonzero"/></clipPath><clipPath id="0302005222"><path d="M 138 138 L 237 138 L 237 237 L 138 237 Z M 138 138 " clip-rule="nonzero"/></clipPath><clipPath id="4f8ed9ace8"><path d="M 232.652344 138.210938 L 236.894531 142.453125 L 142.496094 236.855469 L 138.253906 232.609375 Z M 232.652344 138.210938 " clip-rule="nonzero"/></clipPath><clipPath id="84bb2623fd"><path d="M 232.652344 138.210938 L 236.894531 142.453125 L 142.496094 236.855469 L 138.253906 232.609375 Z M 232.652344 138.210938 " clip-rule="nonzero"/></clipPath></defs><path fill="#ffffff" d="M 240.378906 163.042969 L 155.492188 248.023438 L 155.492188 299.273438 C 155.492188 300.785156 156.699219 301.988281 158.210938 301.988281 L 222.015625 301.988281 C 223.527344 301.988281 224.730469 300.785156 224.730469 299.273438 L 224.730469 232.28125 L 290.503906 232.28125 C 292.015625 232.28125 293.222656 231.074219 293.222656 229.566406 L 293.222656 165.757812 C 293.222656 164.25 292.015625 163.042969 290.503906 163.042969 Z M 240.378906 163.042969 " fill-opacity="1" fill-rule="evenodd"/><g clip-path="url(#da9a57a929)"><path stroke-linecap="round" transform="matrix(2.998186, 0, 0, 2.998186, 127.009465, 135.96506)" fill="none" stroke-linejoin="round" d="M 37.812679 9.031431 L 9.499985 37.375393 L 9.499985 54.469063 C 9.499985 54.973274 9.902573 55.374559 10.406784 55.374559 L 31.687882 55.374559 C 32.192093 55.374559 32.593377 54.973274 32.593377 54.469063 L 32.593377 32.124823 L 54.531122 32.124823 C 55.035333 32.124823 55.43792 31.722235 55.43792 31.219327 L 55.43792 9.936926 C 55.43792 9.434018 55.035333 9.031431 54.531122 9.031431 Z M 37.812679 9.031431 " stroke="#333333" stroke-width="3.125" stroke-opacity="1" stroke-miterlimit="4"/></g><path fill="#999999" d="M 134.613281 211.957031 L 219.5 126.976562 L 219.5 75.726562 C 219.5 74.214844 218.292969 73.007812 216.78125 73.007812 L 152.976562 73.007812 C 151.464844 73.007812 150.261719 74.214844 150.261719 75.726562 L 150.261719 142.71875 L 84.488281 142.71875 C 82.976562 142.71875 81.769531 143.921875 81.769531 145.433594 L 81.769531 209.238281 C 81.769531 210.75 82.976562 211.957031 84.488281 211.957031 Z M 134.613281 211.957031 " fill-opacity="1" fill-rule="evenodd"/><g clip-path="url(#0d064cf6bd)"><path stroke-linecap="round" transform="matrix(-2.998186, 0, 0, -2.998186, 247.982038, 239.03367)" fill="none" stroke-linejoin="round" d="M 37.812451 9.031007 L 9.499757 37.37497 L 9.499757 54.46864 C 9.499757 54.972851 9.902344 55.375438 10.406555 55.375438 L 31.687653 55.375438 C 32.191864 55.375438 32.593149 54.972851 32.593149 54.46864 L 32.593149 32.124399 L 54.530894 32.124399 C 55.035105 32.124399 55.437692 31.723115 55.437692 31.218903 L 55.437692 9.937806 C 55.437692 9.433594 55.035105 9.031007 54.530894 9.031007 Z M 37.812451 9.031007 " stroke="#333333" stroke-width="3.125" stroke-opacity="1" stroke-miterlimit="4"/></g><g clip-path="url(#0302005222)"><g clip-path="url(#4f8ed9ace8)"><g clip-path="url(#84bb2623fd)"><path fill="#ffffff" d="M 232.664062 138.222656 L 138.222656 232.664062 L 142.328125 236.769531 L 236.769531 142.328125 Z M 232.664062 138.222656 " fill-opacity="1" fill-rule="nonzero"/></g></g></g></svg>